<svg width="18" height="18" viewBox="0 0 18 18" fill="none" xmlns="http://www.w3.org/2000/svg">
<path d="M2.93757 8.97126C2.49036 8.52405 2.15967 8.04348 1.94694 7.53004C1.73421 7.01659 1.63365 6.49831 1.64719 5.97422C1.66024 5.45062 1.78256 4.93573 2.01414 4.4305C2.24573 3.92527 2.5798 3.45389 3.01686 3.01683C3.45392 2.57977 3.92531 2.24569 4.43053 2.01411C4.93576 1.78252 5.45066 1.66021 5.97426 1.64715C6.49786 1.6341 7.01662 1.73418 7.53007 1.9469C8.04352 2.15963 8.52409 2.49033 8.9713 2.93754C9.41851 3.38475 9.74921 3.86532 9.96193 4.37877C10.1747 4.89221 10.2752 5.4105 10.2617 5.93458C10.2486 6.45818 10.1263 6.97308 9.89473 7.4783C9.66315 7.98353 9.32907 8.45492 8.89201 8.89198C8.45495 9.32903 7.98357 9.66311 7.47834 9.8947C6.97311 10.1263 6.45821 10.2486 5.93461 10.2617C5.41101 10.2747 4.89225 10.1746 4.3788 9.9619C3.86536 9.74917 3.38479 9.41848 2.93757 8.97126ZM4.21684 7.692C4.48033 7.95549 4.76171 8.15565 5.06195 8.29247C5.36218 8.42929 5.66871 8.50181 5.98199 8.50955C6.29528 8.51729 6.60326 8.45975 6.90591 8.33598C7.20856 8.21221 7.49188 8.01883 7.75489 7.75582C8.01789 7.49281 8.21177 7.20998 8.33505 6.90684C8.45882 6.60419 8.51635 6.29622 8.50862 5.98293C8.50088 5.66964 8.42836 5.36312 8.29154 5.06288C8.15472 4.76264 7.95456 4.48126 7.69107 4.21777C7.42758 3.95428 7.15296 3.76089 6.85031 3.62165C6.54766 3.48241 6.23969 3.40844 5.9264 3.4007C5.61311 3.39297 5.30513 3.4505 5.00248 3.57427C4.69983 3.69804 4.41651 3.89143 4.15351 4.15444C3.8905 4.41745 3.69711 4.70076 3.57334 5.00341C3.44957 5.30607 3.39155 5.61452 3.39977 5.92733C3.40751 6.24062 3.48148 6.54859 3.62072 6.85124C3.75996 7.1539 3.95915 7.43431 4.21684 7.692Z" fill="#262521"/>
<path d="M10.3664 9.10943L9.10938 10.3665L13.7024 14.9594L14.9594 13.7024L10.3664 9.10943Z" fill="#FE5E3C"/>
</svg>
